<mxfile host="app.diagrams.net" modified="2021-12-05T19:04:04.259Z" agent="5.0 (Windows NT 10.0; Win64; x64) AppleWebKit/537.36 (KHTML, like Gecko) Chrome/96.0.4664.55 Safari/537.36" etag="uwxiyBDp3P71FtHsKV5y" version="15.8.9" type="github">
  <diagram name="Page-1" id="64c3da0e-402f-94eb-ee01-a36477274f13">
    <mxGraphModel dx="1422" dy="697" grid="1" gridSize="10" guides="1" tooltips="1" connect="1" arrows="1" fold="1" page="1" pageScale="1" pageWidth="1169" pageHeight="826" math="0" shadow="0">
      <root>
        <mxCell id="0" />
        <mxCell id="1" parent="0" />
        <mxCell id="2" value="PÃ¡gina administrador" style="whiteSpace=wrap;rounded=1;shadow=1;fillColor=#B2C9AB;strokeColor=none;fontColor=#46495D;fontStyle=1;fontSize=24" parent="1" vertex="1">
          <mxGeometry x="620" y="40" width="340" height="60" as="geometry" />
        </mxCell>
        <mxCell id="3" value="Home" style="whiteSpace=wrap;rounded=1;fillColor=#B2C9AB;strokeColor=none;shadow=1;fontColor=#46495D;fontStyle=1;fontSize=14" parent="1" vertex="1">
          <mxGeometry x="160" y="169.9999999999998" width="140" height="60" as="geometry" />
        </mxCell>
        <mxCell id="4" value="Livros" style="whiteSpace=wrap;rounded=1;fillColor=#B2C9AB;strokeColor=none;shadow=1;fontColor=#46495D;fontStyle=1;fontSize=14" parent="1" vertex="1">
          <mxGeometry x="530" y="169.9999999999998" width="140" height="60" as="geometry" />
        </mxCell>
        <mxCell id="6" value="Encerrar" style="whiteSpace=wrap;rounded=1;fillColor=#B2C9AB;strokeColor=none;shadow=1;fontColor=#46495D;fontStyle=1;fontSize=14" parent="1" vertex="1">
          <mxGeometry x="900" y="169.9999999999998" width="140" height="60" as="geometry" />
        </mxCell>
        <mxCell id="7" value="Ver Site" style="whiteSpace=wrap;rounded=1;fillColor=#B2C9AB;strokeColor=none;shadow=1;fontColor=#46495D;fontStyle=1;fontSize=14" parent="1" vertex="1">
          <mxGeometry x="1270" y="169.9999999999998" width="140" height="60" as="geometry" />
        </mxCell>
        <mxCell id="229" value="" style="edgeStyle=elbowEdgeStyle;elbow=vertical;rounded=0;fontColor=#46495D;endArrow=none;endFill=0;strokeWidth=8;strokeColor=#788AA3;" parent="1" source="2" target="3" edge="1">
          <mxGeometry width="100" height="100" relative="1" as="geometry">
            <mxPoint x="540" y="140" as="sourcePoint" />
            <mxPoint x="640" y="40" as="targetPoint" />
          </mxGeometry>
        </mxCell>
        <mxCell id="230" value="" style="edgeStyle=elbowEdgeStyle;elbow=vertical;rounded=0;fontColor=#46495D;endArrow=none;endFill=0;strokeWidth=8;strokeColor=#788AA3;" parent="1" source="2" target="4" edge="1">
          <mxGeometry width="100" height="100" relative="1" as="geometry">
            <mxPoint x="550" y="150" as="sourcePoint" />
            <mxPoint x="650" y="50" as="targetPoint" />
          </mxGeometry>
        </mxCell>
        <mxCell id="231" value="" style="edgeStyle=elbowEdgeStyle;elbow=vertical;rounded=0;fontColor=#46495D;endArrow=none;endFill=0;strokeWidth=8;strokeColor=#788AA3;" parent="1" source="2" target="6" edge="1">
          <mxGeometry width="100" height="100" relative="1" as="geometry">
            <mxPoint x="560" y="160" as="sourcePoint" />
            <mxPoint x="660" y="60" as="targetPoint" />
          </mxGeometry>
        </mxCell>
        <mxCell id="232" value="" style="edgeStyle=elbowEdgeStyle;elbow=vertical;rounded=0;fontColor=#46495D;endArrow=none;endFill=0;strokeWidth=8;strokeColor=#788AA3;" parent="1" source="2" target="7" edge="1">
          <mxGeometry width="100" height="100" relative="1" as="geometry">
            <mxPoint x="570" y="170" as="sourcePoint" />
            <mxPoint x="670" y="70" as="targetPoint" />
          </mxGeometry>
        </mxCell>
      </root>
    </mxGraphModel>
  </diagram>
</mxfile>
